# xmcd
#
# Track frame offsets:
#	150
#	11392
#	23680
#	33030
#	43892
#	54210
#	63707
#	75335
#	87750
#	99190
#	109520
#	122007
#	133922
#	145497
#
# Disc length: 2155
#
# Revision: 3
# Processed by: cddbd v1.5.1PL0 Copyright (c) Steve Scherf et al.
# Submitted via: CDValet v3.01 - Copyright (c) 1997 Greg Leichner
# Normalized: r1:TDELIM( - ),TSWAP
#
DISCID=a708690e
DTITLE=Various Country Artists - When You're Hot You're Country
DYEAR=1900
DGENRE=
TTITLE0=George Jones - Four-0-thirty three
TTITLE1=Johnny Cash - I walk the line
TTITLE2=Feron Young - Hello walls
TTITLE3=Roger Miller - King of the road
TTITLE4=Jerry Lee Lewis - I love you so much it hurts
TTITLE5=Jeannie C. Riley - The girl most likely
TTITLE6=Patsy Cline - I've loved and lost again
TTITLE7=George Jones - If my heart had windows
TTITLE8=Waylon Jennings - Sally was a good old girl
TTITLE9=Johnny Paycheck - A11
TTITLE10=Flatt and Scruggs - Doin' my time
TTITLE11=Wynn Stewart - Wishful thinking
TTITLE12=Johnny Cash - Thanks a lot
TTITLE13=Bill Anderson - Once more
EXTD=
EXTT0=
EXTT1=
EXTT2=
EXTT3=
EXTT4=
EXTT5=
EXTT6=
EXTT7=
EXTT8=
EXTT9=
EXTT10=
EXTT11=
EXTT12=
EXTT13=
PLAYORDER=
